<svg id="Laag_1" data-name="Laag 1" xmlns="http://www.w3.org/2000/svg" viewBox="0 0 1080.89 283.3"><defs><style>.cls-1{fill:#009bb4;}.cls-2{fill:#dfde40;}.cls-3{fill:#083f49;}</style></defs><title>logoZuidhornSideways</title><rect class="cls-1" y="56.65" width="339.52" height="170"/><polygon class="cls-2" points="56.88 0 283.65 0 226.96 113.39 140.51 113.39 170.27 56.69 56.88 56.69 56.88 0"/><polygon class="cls-2" points="283.48 283.31 56.71 283.31 113.4 169.92 199.85 169.92 170.09 226.61 283.48 226.61 283.48 283.31"/><path class="cls-3" d="M1103.08,552.65c-6.29,8.08-16,11.55-26.05,11.55-27.08,0-43.76-21-43.76-47.1,0-34.91,24.51-48.9,45.17-48.9,23.36,0,38.12,12.7,42.22,34.26h-27.08A13.41,13.41,0,0,0,1080.23,491c-19.38,0-18.74,20.41-18.74,26.69,0,8.6,3.47,23.61,20.66,23.61,6.55,0,13.22-3.34,14.63-10.14h-12.45V511.58h37.48V562H1104Z" transform="translate(-626.26 -437.5)"/><path class="cls-3" d="M1156.85,534.43c.64,7.57,5,13,13,13,4.11,0,8.6-1.54,10.65-4.75h23.74c-5.13,14.37-19.12,21-34.27,21-21.3,0-37.34-12.58-37.34-34.78,0-19.38,14.12-35.16,35.16-35.16,26.44,0,37.86,14.76,37.86,40.68Zm24.38-13.22A10.93,10.93,0,0,0,1170.07,510c-7.57,0-11.94,4-13.09,11.17Z" transform="translate(-626.26 -437.5)"/><path class="cls-3" d="M1216.14,495.41h24.51v8.86h.26c5.13-7.7,12.58-10.53,21.82-10.53,7.19,0,14.89,3.72,18,10.39,1-.77,6.16-10.39,22.71-10.39,17.07,0,22.85,11.81,22.85,22.59V562h-25.41V526c0-6.29-.64-11.93-8.34-11.93-6.42,0-8.6,5-8.6,11.93V562h-25.41V526c0-6.29-.64-11.93-8.34-11.93-6.42,0-8.6,5-8.6,11.93V562h-25.41Z" transform="translate(-626.26 -437.5)"/><path class="cls-3" d="M1361.29,534.43c.64,7.57,5,13,13,13,4.11,0,8.6-1.54,10.65-4.75h23.74c-5.13,14.37-19.12,21-34.26,21-21.3,0-37.35-12.58-37.35-34.78,0-19.38,14.12-35.16,35.16-35.16,26.44,0,37.86,14.76,37.86,40.68Zm24.38-13.22A10.93,10.93,0,0,0,1374.5,510c-7.57,0-11.93,4-13.09,11.17Z" transform="translate(-626.26 -437.5)"/><path class="cls-3" d="M1442.13,534.43c.65,7.57,5,13,13,13,4.11,0,8.6-1.54,10.65-4.75h23.74c-5.13,14.37-19.12,21-34.26,21-21.3,0-37.34-12.58-37.34-34.78,0-19.38,14.12-35.16,35.16-35.16,26.44,0,37.86,14.76,37.86,40.68Zm24.39-13.22A10.93,10.93,0,0,0,1455.36,510c-7.57,0-11.93,4-13.09,11.17Z" transform="translate(-626.26 -437.5)"/><path class="cls-3" d="M1501.55,495.41h24.51v8.47h.26c4.75-6.67,11.55-10.14,21.69-10.14,11.93,0,22.85,7.31,22.85,22.59V562h-25.41V527.11c0-7.7-.9-13.09-8.34-13.09-4.36,0-10.14,2.18-10.14,12.83V562h-25.41Z" transform="translate(-626.26 -437.5)"/><path class="cls-3" d="M1615.26,495.41h13.6v15.66h-13.6V534.3c0,6.16,1.41,8.85,7.82,8.85a43.39,43.39,0,0,0,5.78-.39V562c-5.13,0-10.91.77-16.3.77-10.78,0-22.71-1.67-22.71-19.89V511.07h-11.29V495.41h11.29V475.13h25.41Z" transform="translate(-626.26 -437.5)"/><path class="cls-3" d="M1658.38,534.43c.64,7.57,5,13,13,13,4.11,0,8.6-1.54,10.65-4.75h23.74c-5.14,14.37-19.12,21-34.26,21-21.3,0-37.35-12.58-37.35-34.78,0-19.38,14.12-35.16,35.16-35.16,26.44,0,37.86,14.76,37.86,40.68Zm24.38-13.22A10.94,10.94,0,0,0,1671.6,510c-7.57,0-11.93,4-13.09,11.17Z" transform="translate(-626.26 -437.5)"/><path class="cls-3" d="M1072.29,666.37l42.61-46.08h-40.17V596.81h77.39v20.53l-43,47.61h45v23.49h-81.88Z" transform="translate(-626.26 -437.5)"/><path class="cls-3" d="M1233.35,688.44h-24.51V680h-.26c-4.75,6.67-11.55,10.14-21.69,10.14-11.94,0-22.84-7.32-22.84-22.59V621.83h25.41v34.91c0,7.7.9,13.09,8.34,13.09,4.36,0,10.14-2.18,10.14-12.83V621.83h25.41Z" transform="translate(-626.26 -437.5)"/><path class="cls-3" d="M1273.13,614.65h-25.41V596.81h25.41Zm-25.41,7.18h25.41v66.61h-25.41Z" transform="translate(-626.26 -437.5)"/><path class="cls-3" d="M1356.93,688.44h-24.51v-7.32h-.26c-3.21,4.24-7.06,9-19.51,9-18.86,0-28-18.61-28-35.29,0-15.66,6-34.65,28.36-34.65,7.57,0,14.37,3.34,18.23,9h.26V596.81h25.41Zm-35.68-49.8c-9.11,0-11.17,8.6-11.17,16.43s2.06,16.56,11.17,16.56,11.16-8.6,11.16-16.56S1330.37,638.64,1321.26,638.64Z" transform="translate(-626.26 -437.5)"/><path class="cls-3" d="M1370.79,596.81h25.41V629h.25c4.37-5.13,10-8.86,20.79-8.86,11.94,0,22.84,7.31,22.84,22.59v45.69h-25.41V653.53c0-7.7-.9-13.09-8.34-13.09-4.36,0-10.14,2.18-10.14,12.83v35.16h-25.41Z" transform="translate(-626.26 -437.5)"/><path class="cls-3" d="M1487.46,690.11c-25,0-36.32-16.55-36.32-35s11.29-34.91,36.32-34.91,36.31,16.43,36.31,34.91S1512.48,690.11,1487.46,690.11Zm0-51.46c-9.63,0-10.91,9.37-10.91,16.43s1.28,16.56,10.91,16.56,10.91-9.5,10.91-16.56S1497.08,638.64,1487.46,638.64Z" transform="translate(-626.26 -437.5)"/><path class="cls-3" d="M1534.81,621.83h24.38v10.65h.26c4.1-8,9.49-12.32,18.73-12.32a29,29,0,0,1,7.44,1v22.46a25.69,25.69,0,0,0-10-1.67c-10,0-15.4,5.91-15.4,20.15v26.31h-25.41Z" transform="translate(-626.26 -437.5)"/><path class="cls-3" d="M1594.07,621.83h24.52v8.47h.25c4.75-6.68,11.55-10.14,21.69-10.14,11.94,0,22.85,7.31,22.85,22.59v45.69H1638V653.53c0-7.7-.9-13.09-8.34-13.09-4.36,0-10.14,2.18-10.14,12.83v35.16h-25.41Z" transform="translate(-626.26 -437.5)"/></svg>